<svg xmlns="http://www.w3.org/2000/svg" viewBox="0 0 64 64" role="img" aria-label="Favicon">
  <defs>
    <linearGradient id="bg" x1="0" y1="0" x2="1" y2="1">
      <stop offset="0%" stop-color="#2563eb"/>
      <stop offset="100%" stop-color="#1d4ed8"/>
    </linearGradient>
  </defs>
  <rect x="6" y="6" width="52" height="52" rx="14" fill="url(#bg)"/>
  <path d="M32 18c-6.8 0-12.2 5.4-12.2 12.2S25.2 42.4 32 42.4c2.7 0 5.2-.8 7.2-2.4l5.8 5.8a2.4 2.4 0 1 0 3.4-3.4l-5.7-5.7c1.6-2.1 2.5-4.6 2.5-7.4C45.2 23.4 38.8 18 32 18Zm0 4.8a7.4 7.4 0 1 1 0 14.8 7.4 7.4 0 0 1 0-14.8Z" fill="#fff"/>
</svg>